<!-- <svg width="20" height="21" viewBox="0 0 20 21" fill="none" xmlns="http://www.w3.org/2000/svg">
<path d="M10.3835 2.61906C10.3187 2.54352 10.2243 2.5 10.1248 2.5C10.0254 2.5 9.93093 2.54352 9.86621 2.61906C9.62468 2.90149 4 9.61517 4 12.8272C4.018 14.4349 4.67287 15.9699 5.82117 17.0951C6.96948 18.2204 8.51724 18.8442 10.1249 18.8298C11.7326 18.8442 13.2804 18.2204 14.4287 17.0951C15.577 15.9699 16.2319 14.435 16.2499 12.8272C16.2499 9.61517 10.6252 2.90139 10.3837 2.61906H10.3835ZM12.3196 16.9447C12.2727 16.9701 12.2199 16.983 12.1665 16.982C12.0097 16.9811 11.8738 16.8732 11.8375 16.7207C11.8011 16.5681 11.8738 16.4104 12.0134 16.339C12.669 16.015 13.2216 15.5149 13.6092 14.8947C13.9969 14.2744 14.2042 13.5586 14.2081 12.8273C14.2081 12.6394 14.3604 12.4871 14.5484 12.4871C14.7363 12.4871 14.8886 12.6394 14.8886 12.8273C14.8852 13.6845 14.643 14.5237 14.1892 15.2511C13.7354 15.9783 13.0881 16.5647 12.3196 16.9446L12.3196 16.9447Z" fill="#A162F7"/>
</svg> -->

<svg width="38" height="39" viewBox="0 0 38 39" fill="none" xmlns="http://www.w3.org/2000/svg">
<circle cx="19" cy="19.5" r="19" fill="#A162F7" fill-opacity="0.1"/>
<path d="M19.3835 11.6191C19.3187 11.5435 19.2243 11.5 19.1248 11.5C19.0254 11.5 18.9309 11.5435 18.8662 11.6191C18.6247 11.9015 13 18.6152 13 21.8272C13.018 23.4349 13.6729 24.9699 14.8212 26.0951C15.9695 27.2204 17.5172 27.8442 19.1249 27.8298C20.7326 27.8442 22.2804 27.2204 23.4287 26.0951C24.577 24.9699 25.2319 23.435 25.2499 21.8272C25.2499 18.6152 19.6252 11.9014 19.3837 11.6191H19.3835ZM21.3196 25.9447C21.2727 25.9701 21.2199 25.983 21.1665 25.982C21.0097 25.9811 20.8738 25.8732 20.8375 25.7207C20.8011 25.5681 20.8738 25.4104 21.0134 25.339C21.669 25.015 22.2216 24.5149 22.6092 23.8947C22.9969 23.2744 23.2042 22.5586 23.2081 21.8273C23.2081 21.6394 23.3604 21.4871 23.5484 21.4871C23.7363 21.4871 23.8886 21.6394 23.8886 21.8273C23.8852 22.6845 23.643 23.5237 23.1892 24.2511C22.7354 24.9783 22.0881 25.5647 21.3196 25.9446L21.3196 25.9447Z" fill="#A162F7"/>
</svg>
