<!-- <svg width="20" height="21" viewBox="0 0 20 21" fill="none" xmlns="http://www.w3.org/2000/svg">
<path d="M10.4164 18.4215L13.5197 15.3182L12.2237 14.0054L10.6892 15.5399L10.6891 5.65031L12.2236 7.18484L13.5366 5.87188L10.4162 2.7686C10.0581 2.41047 9.46142 2.41047 9.10328 2.7686L6 5.87188L7.31296 7.18484L8.84749 5.65031V15.5399L7.31296 14.0054L6 15.3183L9.10328 18.4216C9.47841 18.7795 10.0581 18.7795 10.4162 18.4214L10.4164 18.4215Z" fill="#FF7E86"/>
</svg> -->

<svg width="38" height="39" viewBox="0 0 38 39" fill="none" xmlns="http://www.w3.org/2000/svg">
<circle cx="19" cy="19.5" r="19" fill="#FF7E86" fill-opacity="0.1"/>
<path d="M19.4164 27.4215L22.5197 24.3182L21.2237 23.0054L19.6892 24.5399L19.6891 14.6503L21.2236 16.1848L22.5366 14.8719L19.4162 11.7686C19.0581 11.4105 18.4614 11.4105 18.1033 11.7686L15 14.8719L16.313 16.1848L17.8475 14.6503V24.5399L16.313 23.0054L15 24.3183L18.1033 27.4216C18.4784 27.7795 19.0581 27.7795 19.4162 27.4214L19.4164 27.4215Z" fill="#FF7E86"/>
</svg>
