<!-- <svg width="20" height="21" viewBox="0 0 20 21" fill="none" xmlns="http://www.w3.org/2000/svg">
<path fill-rule="evenodd" clip-rule="evenodd" d="M11.1999 20.5C10.7985 20.5 8.62449 20.2815 8.50353 20.2571C5.96584 19.7421 4 15.8689 4 11.5C4 7.13455 5.96318 3.26165 8.49813 2.74288C8.62002 2.71802 10.7984 2.5 11.1996 2.5C14.1819 2.5 16.5995 6.52911 16.5995 11.4997C16.5995 16.4704 14.1819 20.4995 11.1996 20.4995L11.1999 20.5ZM12.1 16.9001C13.5911 16.9001 14.7999 14.4825 14.7999 11.5002C14.7999 8.51789 13.5911 6.10027 12.1 6.10027C10.6088 6.10027 9.39999 8.51789 9.39999 11.5002C9.39999 14.4825 10.6088 16.9001 12.1 16.9001ZM11.3862 7.37427C11.6344 7.1332 11.9056 7.00031 12.1896 7.00031C12.4744 7.00031 12.7463 7.1338 12.9949 7.37622C13.0568 7.43649 12.9679 7.9102 12.7284 8.79733C12.5474 9.4027 12.3678 9.70629 12.1896 9.70795C12.0113 9.70961 11.8328 9.40933 11.654 8.80713C11.4138 7.91186 11.3246 7.43424 11.3862 7.3743L11.3862 7.37427ZM13.5791 8.39443C13.7511 8.88725 13.8875 9.46642 13.9752 10.1161C14.0632 10.7675 14.0944 11.4304 14.0754 12.074C14.0707 12.2341 13.8559 12.1773 13.431 11.9035C13.1355 11.6767 12.96 11.3599 12.9043 10.9528C12.8487 10.5457 12.9122 10.0446 13.0952 9.44942C13.3749 8.62362 13.5363 8.27197 13.5791 8.39443L13.5791 8.39443ZM13.8531 13.7241C13.7114 14.2698 13.5245 14.7606 13.2946 15.1621C13.0643 15.5647 12.8116 15.8409 12.5513 15.9962C12.4865 16.0349 12.4426 15.5261 12.4196 14.47C12.4179 13.7243 12.489 13.2248 12.6328 12.9717C12.7766 12.7184 12.9945 12.7089 13.2863 12.9434C13.6995 13.3283 13.8884 13.5886 13.8531 13.7241L13.8531 13.7241ZM11.8298 15.998C11.5701 15.8425 11.3183 15.5666 11.0884 15.1651C10.858 14.7625 10.6707 14.2703 10.5288 13.7228C10.4935 13.5866 10.6811 13.3289 11.0918 12.9498C11.3863 12.7158 11.6058 12.724 11.7502 12.9747C11.8949 13.2253 11.9659 13.7205 11.9634 14.4604C11.9389 15.5241 11.8943 16.0367 11.8298 15.998L11.8298 15.998ZM10.3052 12.0734C10.2864 11.4314 10.3177 10.7703 10.4056 10.1206C10.4936 9.46928 10.6304 8.88875 10.8031 8.39504C10.846 8.27225 11.0058 8.6218 11.2828 9.44371C11.4663 10.0447 11.5309 10.5493 11.4764 10.9573C11.422 11.3655 11.2481 11.681 10.9547 11.9039C10.5263 12.1764 10.3098 12.2329 10.3053 12.0734L10.3052 12.0734Z" fill="#F6CC0D"/>
</svg> -->


<svg width="38" height="39" viewBox="0 0 38 39" fill="none" xmlns="http://www.w3.org/2000/svg">
<circle cx="19" cy="19.5" r="19" fill="#F6CC0D" fill-opacity="0.1"/>
<path fill-rule="evenodd" clip-rule="evenodd" d="M20.1999 29.5C19.7985 29.5 17.6245 29.2815 17.5035 29.2571C14.9658 28.7421 13 24.8689 13 20.5C13 16.1346 14.9632 12.2617 17.4981 11.7429C17.62 11.718 19.7984 11.5 20.1996 11.5C23.1819 11.5 25.5995 15.5291 25.5995 20.4997C25.5995 25.4704 23.1819 29.4995 20.1996 29.4995L20.1999 29.5ZM21.1 25.9001C22.5911 25.9001 23.7999 23.4825 23.7999 20.5002C23.7999 17.5179 22.5911 15.1003 21.1 15.1003C19.6088 15.1003 18.4 17.5179 18.4 20.5002C18.4 23.4825 19.6088 25.9001 21.1 25.9001ZM20.3862 16.3743C20.6344 16.1332 20.9056 16.0003 21.1896 16.0003C21.4744 16.0003 21.7463 16.1338 21.9949 16.3762C22.0568 16.4365 21.9679 16.9102 21.7284 17.7973C21.5474 18.4027 21.3678 18.7063 21.1896 18.7079C21.0113 18.7096 20.8328 18.4093 20.654 17.8071C20.4138 16.9119 20.3246 16.4342 20.3862 16.3743L20.3862 16.3743ZM22.5791 17.3944C22.7511 17.8872 22.8875 18.4664 22.9752 19.1161C23.0632 19.7675 23.0944 20.4304 23.0754 21.074C23.0707 21.2341 22.8559 21.1773 22.431 20.9035C22.1355 20.6767 21.96 20.3599 21.9043 19.9528C21.8487 19.5457 21.9122 19.0446 22.0952 18.4494C22.3749 17.6236 22.5363 17.272 22.5791 17.3944L22.5791 17.3944ZM22.8531 22.7241C22.7114 23.2698 22.5245 23.7606 22.2946 24.1621C22.0643 24.5647 21.8116 24.8409 21.5513 24.9962C21.4865 25.0349 21.4426 24.5261 21.4196 23.47C21.4179 22.7243 21.489 22.2248 21.6328 21.9717C21.7766 21.7184 21.9945 21.7089 22.2863 21.9434C22.6995 22.3283 22.8884 22.5886 22.8531 22.7241L22.8531 22.7241ZM20.8298 24.998C20.5701 24.8425 20.3183 24.5666 20.0884 24.1651C19.858 23.7625 19.6707 23.2703 19.5288 22.7228C19.4935 22.5866 19.6811 22.3289 20.0918 21.9498C20.3863 21.7158 20.6058 21.724 20.7502 21.9747C20.8949 22.2253 20.9659 22.7205 20.9634 23.4604C20.9389 24.5241 20.8943 25.0367 20.8298 24.998L20.8298 24.998ZM19.3052 21.0734C19.2864 20.4314 19.3177 19.7703 19.4056 19.1206C19.4936 18.4693 19.6304 17.8887 19.8031 17.395C19.846 17.2722 20.0058 17.6218 20.2828 18.4437C20.4663 19.0447 20.5309 19.5493 20.4764 19.9573C20.422 20.3655 20.2481 20.681 19.9547 20.9039C19.5263 21.1764 19.3098 21.2329 19.3053 21.0734L19.3052 21.0734Z" fill="#F6CC0D"/>
</svg>
